{
 "cells": [
  {
   "cell_type": "code",
   "execution_count": 1,
   "id": "0d704f6f",
   "metadata": {},
   "outputs": [],
   "source": [
    "from langgraph.graph import END, START, StateGraph\n",
    "from typing import TypedDict\n",
    "import subprocess\n",
    "from openai import OpenAI\n",
    "\n",
    "class State(TypedDict):\n",
    "\n",
    "    video_file: str\n",
    "    audio_file: str\n",
    "    transcription: str"
   ]
  },
  {
   "cell_type": "code",
   "execution_count": 2,
   "id": "24d1f410",
   "metadata": {},
   "outputs": [],
   "source": [
    "def extract_audio(state: State):\n",
    "    output_file = state[\"video_file\"].replace(\"mp4\",\"mp3\")\n",
    "    command = [\n",
    "        \"ffmpeg\",\n",
    "        \"-i\",\n",
    "        state[\"video_file\"],\n",
    "        \"-filter:a\",\n",
    "        \"atempo=2.0\",\n",
    "        \"-y\",\n",
    "        output_file,\n",
    "    ]\n",
    "    subprocess.run(command)\n",
    "    return {\"audio_file\": output_file}\n",
    "\n",
    "def transcribe_audio(state: State):\n",
    "    client = OpenAI()\n",
    "    with open(state[\"audio_file\"], \"rb\") as audio_file:\n",
    "        transcript = client.audio.transcriptions.create(\n",
    "            model=\"whisper-1\",\n",
    "            response_format=\"text\",\n",
    "            file=audio_file,\n",
    "            language=\"ko\",\n",
    "            prompt=\"Jacqueline, Isabele\"\n",
    "        )\n",
    "    return {\"transcription\": transcript}\n"
   ]
  },
  {
   "cell_type": "code",
   "execution_count": 3,
   "id": "bcfa6d1a",
   "metadata": {},
   "outputs": [],
   "source": [
    "graph_builder = StateGraph(State)\n",
    "\n",
    "graph_builder.add_node(\"extract_audio\", extract_audio)\n",
    "graph_builder.add_node(\"transcribe_audio\", transcribe_audio)\n",
    "\n",
    "graph_builder.add_edge(START, \"extract_audio\")\n",
    "graph_builder.add_edge(\"extract_audio\", \"transcribe_audio\")\n",
    "graph_builder.add_edge(\"transcribe_audio\", END)\n",
    "\n",
    "graph = graph_builder.compile()"
   ]
  },
  {
   "cell_type": "code",
   "execution_count": 4,
   "id": "2190856a",
   "metadata": {},
   "outputs": [
    {
     "name": "stderr",
     "output_type": "stream",
     "text": [
      "ffmpeg version 8.0.1 Copyright (c) 2000-2025 the FFmpeg developers\n",
      "  built with Apple clang version 17.0.0 (clang-1700.6.3.2)\n",
      "  configuration: --prefix=/opt/homebrew/Cellar/ffmpeg/8.0.1_4 --enable-shared --enable-pthreads --enable-version3 --cc=clang --host-cflags= --host-ldflags= --enable-ffplay --enable-gpl --enable-libsvtav1 --enable-libopus --enable-libx264 --enable-libmp3lame --enable-libdav1d --enable-libvpx --enable-libx265 --enable-openssl --enable-videotoolbox --enable-audiotoolbox --enable-neon\n",
      "  libavutil      60.  8.100 / 60.  8.100\n",
      "  libavcodec     62. 11.100 / 62. 11.100\n",
      "  libavformat    62.  3.100 / 62.  3.100\n",
      "  libavdevice    62.  1.100 / 62.  1.100\n",
      "  libavfilter    11.  4.100 / 11.  4.100\n",
      "  libswscale      9.  1.100 /  9.  1.100\n",
      "  libswresample   6.  1.100 /  6.  1.100\n",
      "Input #0, mov,mp4,m4a,3gp,3g2,mj2, from 'fun.mp4':\n",
      "  Metadata:\n",
      "    major_brand     : mp42\n",
      "    minor_version   : 0\n",
      "    compatible_brands: isommp42\n",
      "    encoder         : Google\n",
      "  Duration: 00:02:41.49, start: 0.000000, bitrate: 683 kb/s\n",
      "  Stream #0:0[0x1](und): Video: h264 (Main) (avc1 / 0x31637661), yuv420p(tv, bt709, progressive), 640x360 [SAR 1:1 DAR 16:9], 584 kb/s, 30 fps, 30 tbr, 15360 tbn (default)\n",
      "    Metadata:\n",
      "      handler_name    : ISO Media file produced by Google Inc.\n",
      "      vendor_id       : [0][0][0][0]\n",
      "  Stream #0:1[0x2](eng): Audio: aac (LC) (mp4a / 0x6134706D), 44100 Hz, stereo, fltp, 96 kb/s (default)\n",
      "    Metadata:\n",
      "      handler_name    : ISO Media file produced by Google Inc.\n",
      "      vendor_id       : [0][0][0][0]\n",
      "Stream mapping:\n",
      "  Stream #0:1 -> #0:0 (aac (native) -> mp3 (libmp3lame))\n",
      "Press [q] to stop, [?] for help\n",
      "Output #0, mp3, to 'fun.mp3':\n",
      "  Metadata:\n",
      "    major_brand     : mp42\n",
      "    minor_version   : 0\n",
      "    compatible_brands: isommp42\n",
      "    TSSE            : Lavf62.3.100\n",
      "  Stream #0:0(eng): Audio: mp3, 44100 Hz, stereo, fltp (default)\n",
      "    Metadata:\n",
      "      encoder         : Lavc62.11.100 libmp3lame\n",
      "      handler_name    : ISO Media file produced by Google Inc.\n",
      "      vendor_id       : [0][0][0][0]\n",
      "[out#0/mp3 @ 0x132716bb0] video:0KiB audio:1262KiB subtitle:0KiB other streams:0KiB global headers:0KiB muxing overhead: 0.026696%\n",
      "size=    1262KiB time=00:01:20.74 bitrate= 128.1kbits/s speed= 211x elapsed=0:00:00.38    \n"
     ]
    },
    {
     "data": {
      "text/plain": [
       "{'video_file': 'fun.mp4',\n",
       " 'audio_file': 'fun.mp3',\n",
       " 'transcription': '자베리는 지금 뉴스 촬영에 푹 빠져있다. 무화지경에 빠져 챌린지 중인 자베리. 보고 있으면 피가 거꾸로 솟는다. 어머나! 나가요! 피가 다 엉췄... 자베라! 정말 진짜 진짜! 쟤 드라이밍이 크레이지! 한편, 귤락을 골라내는 섬세함이다. 영국의 그레이스도 K-드라마에 푹 빠졌다. 아, 정말 이거 다 빨라, 정말로! 진짜 그라이스다, 자베라 정말로 진짜! 어디론가 전화를 거는 그레이스도 여보, 오늘 올 때 마이크랑 그러면 사와. 당연히 레드지, 내가 피는 거! 몰라, 오늘은 그냥 시그널 피해야겠다. 오늘은 피해야 돼, 그냥 사와! 이날은 담배 없이는 버틸 수 없었다. 끊어요. 거의 영국인답게 차는 잊지 않는다. 그래, 이제는 나도 어쩔 수가 없어. 그냥 가, 그래! 불현듯 어디론가 전화를 거는 그레이스 노래를 이은미 창법으로 부른다. 여러분, Who is this? 어, 나야 유난다. 나 그레이스야. 어, 그레이스! 나 지금 오피스에서 스테인리스에서 있었는데 그레이스가 딱 전화를 했어. 유난다, 나 자베리 때문에 그냥 한국 가려고 그냥. 근데 한국을 갔다니? 어, 더 이상 미룰 수가 없을 것 같아. 그때 이제 한국에 에어앱 B&B인가 그거 무슨 사습지 같은 거 끝나고 그러셨지? 어, 맞아요, 언니. 우리 마이크맨 여기 비거리 힐 이제 우리 집 팔고 한국 가가지고 그거는 좀 하고 그랬거든. 어머, 그래? 소문에 린나 언니가 막 한국에서 브랜드처럼 산다고 막 그랬는데. 이제 린나 아니고 제클린이라니까! 이제 잘 있으니까 이상한 소리 좀 그만하고 다녀, 너! 제클린 험담에 속상해진 그레이스 쉿! 그레이스야! 뭐야? 다시 시작된 유난다의 이은미 창법 어디론가 또다시 전화를 거는 그레이스\\n'}"
      ]
     },
     "execution_count": 4,
     "metadata": {},
     "output_type": "execute_result"
    }
   ],
   "source": [
    "graph.invoke({\"video_file\": \"fun.mp4\"})"
   ]
  }
 ],
 "metadata": {
  "kernelspec": {
   "display_name": ".venv",
   "language": "python",
   "name": "python3"
  },
  "language_info": {
   "codemirror_mode": {
    "name": "ipython",
    "version": 3
   },
   "file_extension": ".py",
   "mimetype": "text/x-python",
   "name": "python",
   "nbconvert_exporter": "python",
   "pygments_lexer": "ipython3",
   "version": "3.13.11"
  }
 },
 "nbformat": 4,
 "nbformat_minor": 5
}
